<?xml version="1.0" encoding="UTF-8" standalone="no"?>
<!-- Created with Inkscape (http://www.inkscape.org/) -->

<svg
   width="84.48378"
   height="100"
   viewBox="0 0 22.353 26.458334"
   version="1.1"
   id="svg1"
   xmlns="http://www.w3.org/2000/svg"
   xmlns:svg="http://www.w3.org/2000/svg">
  <defs
     id="defs1" />
  <g
     id="layer1"
     transform="translate(-20,-18.458802)">
    <path
       style="fill:#adff2f;stroke:#000000;stroke-width:0"
       id="outerBorder"
       d="m 38.963584,37.742778 -3.279887,1.893644 a 8.0041631,8.0041631 2.521989e-7 0 1 -8.004163,-1e-6 l -3.149533,-1.818383 a 8.0498241,8.0498241 60 0 1 -4.024912,-6.971353 v -4.059729 a 7.2715714,7.2715714 120 0 1 3.635786,-6.297366 l 3.672565,-2.120356 a 7.7363525,7.7363525 2.5219888e-7 0 1 7.736352,0 l 3.650166,2.107425 a 7.3163683,7.3163683 60 0 1 3.658185,6.33616 v 4.184386 a 7.7891172,7.7891172 120 0 1 -3.894559,6.745573 z"
       transform="translate(-0.5050891,2.6672406)" />
    <path
       style="fill:#000000;stroke:#000000;stroke-width:0"
       id="innerFill"
       d="m 38.963584,37.742778 -3.279887,1.893644 a 8.0041631,8.0041631 2.521989e-7 0 1 -8.004163,-1e-6 l -3.149533,-1.818383 a 8.0498241,8.0498241 60 0 1 -4.024912,-6.971353 v -4.059729 a 7.2715714,7.2715714 120 0 1 3.635786,-6.297366 l 3.672565,-2.120356 a 7.7363525,7.7363525 2.5219888e-7 0 1 7.736352,0 l 3.650166,2.107425 a 7.3163683,7.3163683 60 0 1 3.658185,6.33616 v 4.184386 a 7.7891172,7.7891172 120 0 1 -3.894559,6.745573 z"
       transform="matrix(0.89473235,0,0,0.89835665,2.9134978,5.6290615)" />
  </g>
  <circle
     style="fill:#adff2f;stroke:#000000;stroke-width:0"
     id="path2-5"
     cx="18.648891"
     cy="-1.5894571e-08"
     r="1.7197917" />
  <circle
     style="fill:#adff2f;stroke:#000000;stroke-width:0"
     id="circle2"
     cx="3.5718751"
     cy="-1.5894575e-08"
     r="1.7197917" />
</svg>
